<svg xmlns="http://www.w3.org/2000/svg" viewBox="0 0 512 121.64"><defs><style>.cls-1{fill:#75bdd3;}.cls-2{fill:#fff;}.cls-3{fill:#75bcd2;}</style></defs><g id="Слой_2" data-name="Слой 2"><g id="Слой_1-2" data-name="Слой 1"><path class="cls-1" d="M79,115c.23,2.42,2.1,3.39,7.52,3.39s6.2-.79,6.2-2.51-.83-1.88-6.91-2.42c-6.23-.55-9.5-1.12-9.5-5.18,0-4.35,4.21-5.53,9.55-5.53s9.44,1,9.76,5.72h-3.4c-.23-2.09-2-2.55-6.71-2.55s-5.8.88-5.8,2.12.88,1.64,6.68,2.24,9.74.67,9.74,5.42-3.63,5.9-9.36,5.9-10.94-1-11.17-6.6Z"/><path class="cls-1" d="M101.42,112.23c0-6.39,4.26-9.44,10.37-9.44s10.34,3,10.34,9.44-4.27,9.41-10.34,9.41S101.42,118.58,101.42,112.23Zm17.3,0c0-4.12-2.42-6.11-6.93-6.11s-7,2-7,6.11,2.42,6.08,7,6.08S118.72,116.31,118.72,112.23Z"/><path class="cls-1" d="M197.11,103.39h3.38L193.85,121h-4.79l-5.65-14-5.67,14H173l-6.63-17.64h3.35l5.7,15.07,6-15.07h4l6,15.07Z"/><path class="cls-1" d="M224.47,112v9h-3.15v-2.18a21.15,21.15,0,0,1-9.94,2.76c-4.61,0-7-1.94-7-6,0-4.63,4.11-6.21,8.93-6.21a24.61,24.61,0,0,1,8,1.43c-.07-4.3-4.59-4.72-6.68-4.72a20.47,20.47,0,0,0-7.84,1.54l-1.16-3a25.41,25.41,0,0,1,9.3-1.81C221.17,102.79,224.42,105.09,224.47,112Zm-3.15,3.81v-1.91a22.83,22.83,0,0,0-7.79-1.39c-3.43,0-5.73.85-5.73,3s1.82,2.78,4.54,2.78C214.79,118.34,218.57,117.07,221.32,115.83Z"/><path class="cls-1" d="M262.09,115.19h3.4c-.91,4.06-4.44,6.45-9.71,6.45-6.05,0-10.39-3-10.39-9.41s4.49-9.44,10.14-9.44,10.19,2.51,10.19,10.38h-16.9c.33,3.66,2.78,5.17,7,5.17C259.59,118.34,261.31,117.07,262.09,115.19ZM249,110.08h13.09c-.65-2.81-2.9-4.06-6.58-4.06C252.08,106,249.76,107.24,249,110.08Z"/><polygon class="cls-1" points="141.06 99.76 141.06 96.46 130.69 96.46 130.72 103.39 126.31 103.39 126.31 106.69 130.72 106.69 130.72 121.02 130.75 121.02 130.75 121.03 133.91 121.03 133.91 121.02 133.93 121.02 133.93 106.69 140.71 106.69 140.71 103.39 133.93 103.39 133.93 99.76 141.06 99.76"/><polygon class="cls-1" points="161.59 117.74 161.59 121.03 151.22 121.03 151.26 106.67 146.85 106.67 146.85 103.37 151.26 103.37 151.26 96.47 151.29 96.47 151.29 96.46 154.44 96.46 154.44 96.47 154.46 96.47 154.46 103.37 161.25 103.37 161.25 106.67 154.46 106.67 154.46 117.74 161.59 117.74"/><polygon class="cls-1" points="243.1 103.39 230.92 103.39 230.92 103.39 230.86 103.39 230.86 121.03 233.95 121.03 233.95 106.66 243.1 106.66 243.1 103.39"/><polygon class="cls-2" points="75.32 69.79 87.56 69.79 87.56 0.43 75.41 0.47 75.32 69.79"/><polygon class="cls-2" points="128.36 8.59 128.47 0.37 120.2 0.41 94.14 32.98 120.2 69.79 128.36 69.79 128.36 61.63 109.34 33.07 128.36 8.59"/><polyline class="cls-2" points="165.14 0.2 152.92 0.2 152.92 69.61 165.18 69.61 165.17 20.69 201.94 69.61 214.13 69.63 214.15 0.21 201.91 0.21 201.79 49.38"/><path class="cls-2" d="M270,0c-21.49,0-36.69,16.49-36.69,36.18,0,19.89,15,36.19,36.49,36.19s36.68-16.5,36.68-36.19C306.49,16.29,291.5,0,270,0Zm0,61.07c-13.9,0-23.79-11.29-23.79-24.89,0-13.79,9.69-24.89,23.59-24.89s23.79,11.3,23.79,24.89C293.6,50,283.9,61.07,270,61.07Z"/><polyline class="cls-2" points="481.4 12.61 503.84 69.81 512 69.8 511.98 61.53 487.52 0.23 475.28 0.23 450.8 61.57 450.8 69.8 458.96 69.8"/><polygon class="cls-2" points="316.21 12.52 336.63 12.47 336.63 69.8 348.87 69.8 348.87 12.52 369.49 12.52 369.49 0.2 316.21 0.2 316.21 12.52"/><polygon class="cls-2" points="385.4 12.7 405.83 12.64 405.83 69.98 418.06 69.98 418.06 12.7 438.69 12.7 438.69 0.38 385.4 0.38 385.4 12.7"/><polygon class="cls-3" points="50.56 29.39 32.47 29.39 32.47 11.29 23.42 11.29 23.42 31.61 23.42 31.61 23.42 29.39 14.38 29.39 14.38 29.39 5.33 29.39 5.33 38.43 14.38 38.43 14.38 38.43 16.38 38.43 0 54.27 0.01 54.28 0.01 54.28 0.01 61.07 6.8 61.07 23.42 44.97 23.42 47.48 23.42 47.48 23.42 56.52 32.47 56.52 32.47 47.48 32.47 47.48 32.47 44.67 32.47 38.43 32.47 38.43 50.56 38.43 50.56 29.39"/></g></g></svg>