<svg xmlns="http://www.w3.org/2000/svg" viewBox="0 0 268.36 63.76"><defs><style>.cls-1{fill:#75bcd2;}.cls-2{fill:#363851;}</style></defs><g id="Слой_2" data-name="Слой 2"><g id="Layer_1" data-name="Layer 1"><path class="cls-1" d="M41.42,60.3c.12,1.27,1.1,1.78,3.94,1.78s3.25-.42,3.25-1.32-.44-1-3.62-1.27-5-.59-5-2.71c0-2.29,2.2-2.9,5-2.9s4.94.5,5.11,3H48.35c-.12-1.09-1.07-1.33-3.52-1.33s-3,.46-3,1.11.46.86,3.5,1.17,5.11.35,5.11,2.84-1.91,3.1-4.91,3.1-5.74-.51-5.85-3.46Z"/><path class="cls-1" d="M53.16,58.82c0-3.34,2.23-4.94,5.43-4.94S64,55.48,64,58.82s-2.23,4.94-5.42,4.94S53.16,62.15,53.16,58.82Zm9.07,0c0-2.15-1.27-3.2-3.64-3.2s-3.65,1.05-3.65,3.2S56.21,62,58.59,62,62.23,61,62.23,58.82Z"/><path class="cls-1" d="M103.31,54.19h1.77l-3.47,9.25H99.1l-3-7.36-3,7.36H90.65l-3.48-9.25h1.76l3,7.9,3.16-7.9h2.1l3.16,7.9Z"/><path class="cls-1" d="M117.66,58.71v4.73H116V62.3a11.24,11.24,0,0,1-5.21,1.44c-2.42,0-3.66-1-3.66-3.17,0-2.43,2.15-3.25,4.67-3.25a13.13,13.13,0,0,1,4.2.74c0-2.25-2.41-2.47-3.51-2.47a10.8,10.8,0,0,0-4.11.81l-.61-1.57a13.25,13.25,0,0,1,4.88-.95C115.93,53.88,117.63,55.08,117.66,58.71Zm-1.65,2v-1a12,12,0,0,0-4.09-.73c-1.8,0-3,.45-3,1.59s1,1.46,2.38,1.46A13.82,13.82,0,0,0,116,60.71Z"/><path class="cls-1" d="M137.37,60.38h1.79c-.48,2.12-2.33,3.38-5.09,3.38-3.17,0-5.45-1.57-5.45-4.94s2.36-4.94,5.32-4.94,5.34,1.31,5.34,5.44h-8.86c.17,1.92,1.45,2.71,3.66,2.71C136.06,62,137,61.36,137.37,60.38Zm-6.84-2.68h6.86c-.35-1.48-1.52-2.13-3.45-2.13S130.91,56.21,130.53,57.7Z"/><polygon class="cls-1" points="73.93 52.29 73.93 50.56 68.5 50.56 68.52 54.19 66.21 54.19 66.21 55.92 68.52 55.92 68.52 63.43 68.53 63.43 68.53 63.44 70.19 63.44 70.19 63.43 70.2 63.43 70.2 55.92 73.75 55.92 73.75 54.19 70.2 54.19 70.2 52.29 73.93 52.29"/><polygon class="cls-1" points="84.7 61.71 84.7 63.44 79.27 63.44 79.28 55.91 76.97 55.91 76.97 54.18 79.28 54.18 79.28 50.56 79.3 50.56 79.3 50.56 80.95 50.56 80.95 50.56 80.96 50.56 80.96 54.18 84.52 54.18 84.52 55.91 80.96 55.91 80.96 61.71 84.7 61.71"/><polygon class="cls-1" points="127.42 54.19 121.04 54.19 121.04 54.19 121 54.19 121 63.44 122.63 63.44 122.63 55.91 127.42 55.91 127.42 54.19"/><polygon class="cls-2" points="39.48 36.58 45.89 36.58 45.89 0.23 39.53 0.24 39.48 36.58"/><polygon class="cls-2" points="67.28 4.5 67.34 0.19 63 0.22 49.35 17.28 63 36.58 67.28 36.58 67.28 32.3 57.31 17.33 67.28 4.5"/><polyline class="cls-2" points="86.56 0.1 80.15 0.1 80.15 36.49 86.58 36.49 86.57 10.84 105.85 36.49 112.23 36.49 112.25 0.11 105.83 0.11 105.77 25.88"/><path class="cls-2" d="M141.52,0A18.78,18.78,0,0,0,122.3,19a19.18,19.18,0,0,0,38.35,0A18.64,18.64,0,0,0,141.52,0Zm0,32c-7.28,0-12.46-5.92-12.46-13s5.08-13,12.36-13,12.47,5.92,12.47,13S148.81,32,141.52,32Z"/><polyline class="cls-2" points="252.32 6.61 264.09 36.59 268.36 36.59 268.36 32.25 255.53 0.12 249.12 0.12 236.29 32.27 236.29 36.59 240.56 36.59"/><polygon class="cls-2" points="165.74 6.56 176.44 6.53 176.44 36.59 182.86 36.59 182.86 6.56 193.67 6.56 193.67 0.1 165.74 0.1 165.74 6.56"/><polygon class="cls-2" points="202.01 6.66 212.71 6.63 212.71 36.68 219.13 36.68 219.13 6.66 229.94 6.66 229.94 0.2 202.01 0.2 202.01 6.66"/><polygon class="cls-1" points="26.5 15.4 17.02 15.4 17.02 5.92 12.28 5.92 12.28 16.57 12.28 16.57 12.28 15.4 7.54 15.4 7.54 15.4 2.79 15.4 2.79 20.14 7.54 20.14 7.54 20.14 8.58 20.14 0 28.45 0 28.45 0 28.45 0 32.01 3.56 32.01 12.28 23.57 12.28 24.89 12.28 24.89 12.28 29.63 17.02 29.63 17.02 24.89 17.02 24.89 17.02 23.42 17.02 20.14 17.02 20.14 26.5 20.14 26.5 15.4"/></g></g></svg>